PathFileType	4	(X/Y/Z)	C:/Users/opensim2020/Desktop/walking_exp_matlab/subject06_cal10_run.trc	
DataRate	CameraRate	NumFrames	NumMarkers	Units	OrigDataRate	OrigDataStartFrame	OrigNumFrames	
100.00	100.00	7	49	mm	100.00	242	118	
Frame#	Time	LKNE			RTIB			RFRM			RWRA			LTHI			RKNE			RELB			RFHD			LWRA			RUPA			STRN			RASI			CLAV			RSHO			LASI			RTHI			RBHD			LBHD			C7			RWRB			RFIN			RTOE			LSHO			RBAK			LTIB			RANK			LFIN			LANK			RHEE			T10			LHEE			LTOE			LFHD			LPSI			RPSI			LUPA			LELB			LFRM			LWRB			*39			*40			*41			*42			*43			*44			*45			*46			*47			*48			
		X1	Y1	Z1	X2	Y2	Z2	X3	Y3	Z3	X4	Y4	Z4	X5	Y5	Z5	X6	Y6	Z6	X7	Y7	Z7	X8	Y8	Z8	X9	Y9	Z9	X10	Y10	Z10	X11	Y11	Z11	X12	Y12	Z12	X13	Y13	Z13	X14	Y14	Z14	X15	Y15	Z15	X16	Y16	Z16	X17	Y17	Z17	X18	Y18	Z18	X19	Y19	Z19	X20	Y20	Z20	X21	Y21	Z21	X22	Y22	Z22	X23	Y23	Z23	X24	Y24	Z24	X25	Y25	Z25	X26	Y26	Z26	X27	Y27	Z27	X28	Y28	Z28	X29	Y29	Z29	X30	Y30	Z30	X31	Y31	Z31	X32	Y32	Z32	X33	Y33	Z33	X34	Y34	Z34	X35	Y35	Z35	X36	Y36	Z36	X37	Y37	Z37	X38	Y38	Z38	X39	Y39	Z39	X40	Y40	Z40	X41	Y41	Z41	X42	Y42	Z42	X43	Y43	Z43	X44	Y44	Z44	X45	Y45	Z45	X46	Y46	Z46	X47	Y47	Z47	X48	Y48	Z48	X49	Y49	Z49	

74	0.730	168.38756	685.19049	444.84796	418.39539	601.09772	348.17645	536.23419	663.86212	1069.16345	440.54303	765.52966	1057.05322	130.00058	663.03943	604.05518	417.33728	799.56995	482.38620	565.05225	590.27893	1143.79944	316.99030	782.83496	1613.13635	106.35281	789.88104	1103.15955	522.92950	611.98285	1243.70691	258.92944	795.64264	1144.11841	397.20227	721.38409	909.91663	249.61440	775.05615	1327.45117	403.03217	718.89587	1377.30896	179.61995	726.73413	905.65759	447.23108	747.37244	597.60046	299.63190	654.84076	1555.55249	170.98409	669.31158	1557.85291	236.21333	667.35535	1411.62708	478.40509	760.73193	1001.75330	451.42761	835.54614	1011.91895	396.15359	485.84155	132.22832	85.37012	721.28973	1361.25854	317.99652	574.39264	1257.93909	189.73590	565.35541	218.40416	385.49353	432.37454	273.14917	134.88278	871.02283	1062.62891	243.15103	479.34512	74.30252	341.32104	387.50165	290.17874	273.89188	590.60065	1095.15552	279.80301	427.86609	80.39775	273.59622	611.93304	32.90902	185.07956	798.16534	1621.06055	203.01654	574.04620	962.25751	371.86154	577.79962	956.59802	-8.69979	650.61688	1195.29724	-40.31792	610.30939	1105.37073	14.73798	713.60431	1050.46313	93.21835	796.23682	1033.77686							230.93965	689.16156	1654.38843																					 
75	0.740	169.05432	703.17963	441.00104	421.07031	668.47955	351.69638	539.59534	686.86407	1076.06238	447.56497	792.46271	1064.12244	132.11232	688.21857	601.54700	419.36862	858.19672	497.43973	565.31165	613.14673	1151.94727	318.24835	819.76648	1614.77161	111.67702	836.21887	1112.84753	521.19696	638.08771	1250.55286	261.77292	833.30670	1145.26526	399.00958	757.30151	913.06287	252.51050	813.17230	1328.38171	403.89951	751.79022	1379.29346	180.49458	763.08661	904.58868	449.36792	798.29877	608.70667	300.41257	692.05267	1556.64868	171.89398	707.28186	1558.08740	236.47183	704.96442	1412.04053	484.49625	786.02570	1008.51935	460.52054	862.29065	1018.67609	399.75583	567.36713	128.52771	87.40865	763.16400	1363.26318	314.84546	610.63855	1257.95923	189.85683	574.61603	220.63014	387.58542	504.60709	265.12341	143.40872	918.16888	1077.16846	241.52394	481.53885	80.65545	342.99640	458.72705	278.87210	271.48978	628.19843	1095.61987	277.56360	430.94418	89.17794	273.47067	611.79651	32.82632	186.34624	835.85413	1621.81946	202.71086	611.78357	962.82922	370.87454	615.10144	958.70758	-9.40276	697.90436	1196.25073	-41.27134	662.76154	1104.72803	18.35233	766.00269	1055.59985	99.76273	846.85364	1043.84680							231.09915	726.43701	1655.02087																					 
76	0.750	169.51465	722.52747	439.88583	423.02316	734.93213	356.03220	541.95758	710.80548	1086.22131	453.29245	819.76605	1073.61145	133.80722	715.07318	601.86591	421.02487	914.18195	514.81183	564.84869	636.78522	1161.90161	319.80524	857.64307	1618.19165	116.35861	881.30481	1124.83228	519.51434	665.41992	1259.05981	264.87549	870.94952	1148.22729	399.52536	795.06140	918.46783	255.68849	851.16931	1331.24780	404.90936	784.48480	1382.99390	180.49710	800.98187	905.12671	451.13220	847.20953	621.18738	301.74442	729.65771	1560.02649	173.27754	745.27698	1560.52087	236.79173	743.02350	1414.53577	490.17636	812.16663	1018.18872	467.95789	889.35437	1028.27881	401.94601	650.47296	125.35314	89.61708	804.46533	1366.90320	312.61224	647.35339	1260.09351	190.01875	585.48779	225.28883	388.80292	577.78711	256.71368	151.88908	963.10895	1093.78333	239.02171	485.72046	89.77706	343.91855	531.28430	266.66922	268.99857	666.53442	1097.80005	274.66199	435.52612	101.14073	273.18903	612.18866	32.88411	187.62781	873.84277	1624.25928	201.70393	650.57043	964.67670	369.93185	652.69452	963.12421	-9.32895	745.64563	1198.76196	-41.96934	714.28516	1106.36865	21.98635	817.17224	1063.24023	106.42198	895.65692	1056.12292							231.82353	764.30164	1657.87561																					 
77	0.760	170.02119	743.45477	441.89731	424.19836	800.30011	360.70087	543.11096	735.45728	1098.18701	457.64465	847.41492	1084.56067	134.83289	745.07642	604.94659	422.50723	967.07782	533.68445	563.47858	661.52942	1172.75415	321.07614	895.48535	1623.08582	120.50896	925.21362	1138.37915	518.16278	694.13647	1268.45740	268.18250	908.20459	1152.99292	399.06281	834.16058	924.93945	258.90668	889.07135	1335.89490	405.98566	817.57452	1388.38440	180.04691	840.00299	907.75000	452.56110	894.41302	634.69049	303.60300	767.69122	1565.32141	175.10149	783.03925	1565.01575	237.50739	781.25397	1419.00159	495.08633	839.48853	1029.85901	474.38968	917.40765	1039.81458	402.67819	734.50006	122.97884	92.01514	845.59753	1372.24487	310.74997	683.73199	1264.39429	188.80405	597.78436	233.09088	389.14856	652.05359	248.25824	159.14288	1007.24933	1111.87537	236.00282	492.44693	101.13559	343.63501	604.78271	254.35500	266.75809	705.36798	1101.67517	271.09695	443.31454	115.54794	272.92950	613.44830	32.68021	189.14244	912.04907	1628.46765	200.32413	690.52075	967.63525	368.72128	691.05182	969.08014	-8.68543	793.73987	1202.73425	-42.30387	764.93317	1109.87634	25.37856	867.27747	1072.69482	113.27151	942.26190	1069.99658							233.23016	802.61487	1662.73779																					 
78	0.770	170.44902	766.21600	446.87833	424.73532	864.64948	365.16220	543.47717	761.64954	1110.93481	461.37259	876.09888	1096.45117	135.52339	777.53906	609.70508	423.82626	1016.87555	552.51642	561.45361	687.48663	1184.19507	322.55835	933.86749	1629.32837	123.89993	968.27643	1153.41895	517.01617	723.88489	1278.28455	271.49225	945.97888	1159.38965	399.04633	874.14923	933.08624	262.03833	926.83936	1342.19421	407.06247	851.81848	1394.93909	179.25632	880.48987	912.44733	453.42114	939.98596	648.75049	305.84747	806.04370	1572.29321	177.25273	821.16327	1571.40393	238.34868	819.14099	1425.29138	499.47995	867.42865	1042.61670	479.86295	946.20544	1052.36780	401.50485	818.85236	121.46313	94.79706	886.45074	1378.95715	309.06808	720.83533	1270.35522	187.43712	612.12256	243.78502	388.18344	726.66248	239.60246	166.59514	1049.36206	1130.27808	232.54259	502.49432	114.62201	342.68182	679.11115	242.18846	264.80399	744.73993	1107.28540	267.12131	454.94904	132.01709	273.41388	614.74121	32.43204	190.95511	950.38788	1634.13501	199.10913	731.39612	971.79938	367.48804	729.84265	976.18939	-7.24836	841.54053	1208.07813	-42.21552	814.59076	1114.95398	29.22686	915.56738	1083.04797	119.51757	987.61664	1085.13489							235.03604	841.34015	1669.22668																					 
79	0.780	170.59581	790.52539	454.09525	424.56100	927.93842	369.08380	543.27167	789.03479	1123.71924	463.75198	905.56995	1108.40820	136.09717	811.37457	616.04913	424.90906	1064.39221	570.44952	558.94080	714.86841	1196.07288	324.71744	973.60724	1636.99719	127.37783	1010.14734	1168.10400	515.44452	754.98529	1288.53223	274.09781	983.37622	1167.42542	399.09866	914.74878	942.71631	265.11273	964.40784	1349.83997	408.15778	886.72906	1402.48596	179.05098	922.53552	918.89423	454.20206	984.85712	663.46790	308.37466	844.86646	1580.66321	179.82033	859.46045	1579.39856	239.49661	857.36957	1432.51294	502.67331	896.03821	1054.99219	484.47293	975.75183	1064.94177	398.14706	902.83313	120.67348	97.60877	927.07349	1386.85693	307.95193	758.16724	1277.63538	185.73241	628.50818	256.28790	386.51013	801.59406	231.51741	173.47002	1090.22009	1148.80640	228.63731	515.99469	129.79684	341.16360	753.90277	230.77750	262.93030	784.51367	1113.99756	263.00742	470.64664	149.61279	273.85324	616.24518	32.23814	192.68770	989.00854	1641.09045	197.87029	772.89728	977.43237	365.76700	769.69141	984.10400	-5.20999	888.49719	1214.93665	-41.94532	863.23792	1121.62720	33.37272	962.04718	1094.22864	125.50067	1031.54553	1100.71350							237.16975	880.44116	1677.16833																					 
80	0.790	170.52962	816.74695	463.02164	423.68869	990.14996	371.98807	542.10889	817.76208	1136.17639	465.61673	936.31854	1120.33032	136.57848	846.19019	623.87738	425.84531	1109.67957	586.89709	555.93933	743.59454	1208.23987	326.96558	1013.24792	1645.01624	130.82361	1051.09888	1182.90588	512.90674	786.71057	1299.27661	277.11145	1021.72351	1175.98804	399.00052	955.93805	953.34222	267.81995	1001.81903	1358.25647	409.22906	921.92596	1411.04858	179.66878	965.97955	926.51746	454.67596	1028.57825	678.30072	311.03751	883.71942	1589.94373	182.51312	897.57404	1588.40283	241.13071	895.14899	1440.64661	504.87659	926.16034	1067.54980	488.28677	1006.19531	1077.00867	392.37946	985.80847	120.24574	100.38461	967.32904	1395.60583	307.08615	796.25354	1285.62952	183.68373	647.88940	270.28137	383.95172	876.62738	223.97083	179.61674	1130.44250	1167.13354	224.04355	534.02667	145.14903	339.24707	828.96735	220.41023	261.35590	824.61072	1121.49255	258.28116	491.07452	167.25424	274.31201	617.53082	31.93302	194.65736	1027.93872	1648.80090	197.10410	816.06854	984.04510	364.15701	810.17517	992.75970	-3.20922	934.79358	1223.33203	-41.15160	910.61737	1129.46765	37.10904	1007.68372	1106.39502	131.25201	1074.19189	1116.36353							239.58403	919.99396	1686.05640																					 
